<svg width="190" height="190" viewBox="0 0 190 190" fill="none" xmlns="http://www.w3.org/2000/svg">
<g clip-path="url(#clip0_33_993)">
<path d="M60 35C60 47.4771 50.8458 57.8208 38.8958 59.6979V42.275H44.7062L45.8125 35.0667H38.8958V30.3896C38.8958 28.4167 39.8625 26.4958 42.9583 26.4958H46.1021V20.3583C46.1021 20.3583 43.2479 19.8708 40.5208 19.8708C34.825 19.8708 31.1042 23.3229 31.1042 29.5708V35.0646H24.7729V42.2729H31.1042V59.6958C19.1562 57.8167 10 47.475 10 35C10 21.1938 21.1937 10 35 10C48.8062 10 60 21.1917 60 35Z" fill="black"/>
</g>
<g clip-path="url(#clip1_33_993)">
<path d="M95 14.5042C101.675 14.5042 102.467 14.5292 105.102 14.65C107.827 14.775 110.633 15.3958 112.619 17.3812C114.623 19.3854 115.225 22.1646 115.35 24.8979C115.471 27.5333 115.496 28.325 115.496 35C115.496 41.675 115.471 42.4667 115.35 45.1021C115.227 47.8125 114.592 50.6458 112.619 52.6187C110.615 54.6229 107.838 55.225 105.102 55.35C102.467 55.4708 101.675 55.4958 95 55.4958C88.325 55.4958 87.5333 55.4708 84.8979 55.35C82.2083 55.2271 79.3375 54.5771 77.3812 52.6187C75.3875 50.625 74.775 47.8188 74.65 45.1021C74.5292 42.4667 74.5042 41.675 74.5042 35C74.5042 28.325 74.5292 27.5333 74.65 24.8979C74.7729 22.1979 75.4146 19.3479 77.3812 17.3812C79.3812 15.3812 82.1708 14.775 84.8979 14.65C87.5333 14.5292 88.325 14.5042 95 14.5042ZM95 10C88.2104 10 87.3583 10.0292 84.6917 10.15C80.8271 10.3271 76.9896 11.4021 74.1958 14.1958C71.3917 17 70.3271 20.8292 70.15 24.6917C70.0292 27.3583 70 28.2104 70 35C70 41.7896 70.0292 42.6417 70.15 45.3083C70.3271 49.1687 71.4062 53.0167 74.1958 55.8042C76.9979 58.6062 80.8333 59.6729 84.6917 59.85C87.3583 59.9708 88.2104 60 95 60C101.79 60 102.642 59.9708 105.308 59.85C109.171 59.6729 113.012 58.5958 115.804 55.8042C118.61 52.9979 119.673 49.1708 119.85 45.3083C119.971 42.6417 120 41.7896 120 35C120 28.2104 119.971 27.3583 119.85 24.6917C119.673 20.8271 118.596 16.9875 115.804 14.1958C113.006 11.3979 109.16 10.325 105.308 10.15C102.642 10.0292 101.79 10 95 10Z" fill="black"/>
<path d="M95.0001 22.1626C87.9105 22.1626 82.1626 27.9105 82.1626 35.0001C82.1626 42.0897 87.9105 47.8376 95.0001 47.8376C102.09 47.8376 107.838 42.0897 107.838 35.0001C107.838 27.9105 102.09 22.1626 95.0001 22.1626ZM95.0001 43.3334C90.398 43.3334 86.6668 39.6022 86.6668 35.0001C86.6668 30.398 90.398 26.6668 95.0001 26.6668C99.6022 26.6668 103.333 30.398 103.333 35.0001C103.333 39.6022 99.6022 43.3334 95.0001 43.3334Z" fill="black"/>
<path d="M108.346 24.6541C110.003 24.6541 111.346 23.3109 111.346 21.6541C111.346 19.9972 110.003 18.6541 108.346 18.6541C106.689 18.6541 105.346 19.9972 105.346 21.6541C105.346 23.3109 106.689 24.6541 108.346 24.6541Z" fill="black"/>
</g>
<g clip-path="url(#clip2_33_993)">
<path d="M57.9209 114.967H58.3938L57.4876 113.596C58.0417 113.596 58.3355 113.244 58.3396 112.813C58.3396 112.796 58.3396 112.777 58.3375 112.761C58.3375 112.173 57.9834 111.892 57.2563 111.892H56.0813V114.967H56.523V113.627H57.0667L57.9209 114.967ZM57.0355 113.279H56.523V112.24H57.173C57.5084 112.24 57.8917 112.294 57.8917 112.734C57.8917 113.238 57.5063 113.279 57.0355 113.279Z" fill="black"/>
<path d="M46.0229 109.736H39.7583V99.9252C39.7583 97.5856 39.7167 94.5752 36.5 94.5752C33.2375 94.5752 32.7375 97.1231 32.7375 99.7564V109.736H26.475V89.5606H32.4896V92.3169H32.5729C33.8 90.221 36.0792 88.9689 38.5063 89.0585C44.8563 89.0585 46.025 93.2356 46.025 98.6669L46.0229 109.736ZM19.4063 86.8023C17.3979 86.8023 15.7708 85.1752 15.7708 83.1669C15.7708 81.1585 17.3979 79.5314 19.4063 79.5314C21.4146 79.5314 23.0417 81.1585 23.0417 83.1669C23.0417 85.1752 21.4146 86.8023 19.4063 86.8023ZM22.5375 109.736H16.2667V89.5606H22.5375V109.736ZM49.1458 73.7148H13.1188C11.4167 73.696 10.0208 75.0606 10 76.7627V112.938C10.0208 114.642 11.4167 116.006 13.1188 115.988H49.1458C50.8521 116.009 52.2542 114.644 52.2771 112.938V76.7606C52.2521 75.0544 50.85 73.6898 49.1458 73.7127" fill="black"/>
<path d="M57.0897 110.523C55.498 110.538 54.2188 111.842 54.2355 113.434C54.2501 115.025 55.5543 116.304 57.1459 116.288C58.7376 116.273 60.0168 114.969 60.0001 113.377C59.9855 111.807 58.7147 110.538 57.1459 110.523H57.0897ZM57.1563 115.957C55.7605 115.979 54.5438 114.869 54.5209 113.473C54.498 112.077 55.6105 110.927 57.0063 110.904C58.4022 110.882 59.5522 111.994 59.5751 113.39C59.5751 113.404 59.5751 113.417 59.5751 113.432C59.6043 114.796 58.5209 115.927 57.1563 115.957H57.0918Z" fill="black"/>
</g>
<g clip-path="url(#clip3_33_993)">
<path fill-rule="evenodd" clip-rule="evenodd" d="M95 70C81.1937 70 70 81.1937 70 95C70 108.806 81.1937 120 95 120C108.806 120 120 108.806 120 95C120 81.1937 108.806 70 95 70ZM106.587 87.0021C106.212 90.9542 104.583 100.548 103.756 104.975C103.406 106.85 102.715 107.477 102.048 107.537C100.596 107.671 99.4937 106.577 98.0875 105.656C95.8875 104.215 94.6437 103.317 92.5083 101.908C90.0396 100.281 91.6396 99.3875 93.0458 97.9271C93.4146 97.5437 99.8104 91.725 99.9354 91.1979C99.95 91.1312 99.9667 90.8854 99.8187 90.7562C99.6708 90.6271 99.4562 90.6708 99.3021 90.7062C99.0812 90.7562 95.5667 93.0792 88.7562 97.675C87.7583 98.3604 86.8542 98.6937 86.0437 98.6771C85.1521 98.6583 83.4354 98.1729 82.1583 97.7562C80.5937 97.2479 79.3479 96.9771 79.4562 96.1146C79.5125 95.6646 80.1313 95.2042 81.3146 94.7333C88.6021 91.5583 93.4625 89.4646 95.8937 88.4521C102.837 85.5646 104.279 85.0625 105.221 85.0458C106.4 85.0292 106.683 86.0021 106.587 87.0021Z" fill="black"/>
</g>
<path d="M56.7999 150.555C52.3437 150.555 48.2125 149.13 44.8416 146.709V164.178C44.8416 172.903 37.7437 179.999 29.0208 179.999C25.65 179.999 22.5229 178.936 19.9541 177.132C15.875 174.268 13.2 169.53 13.2 164.178C13.2 155.453 20.2979 148.355 29.0229 148.355C29.7479 148.355 30.4562 148.416 31.1541 148.509V150.545V157.284C30.4791 157.074 29.7666 156.951 29.0229 156.951C25.0395 156.951 21.7979 160.193 21.7979 164.178C21.7979 166.953 23.3729 169.363 25.6729 170.574C26.675 171.101 27.8145 171.403 29.025 171.403C32.9166 171.403 36.0916 168.307 36.2375 164.449L36.2437 130.001H44.8395C44.8395 130.747 44.9124 131.474 45.0416 132.182C45.6479 135.457 47.5916 138.268 50.2854 140.024C52.1604 141.247 54.3979 141.961 56.7979 141.961L56.7999 150.555Z" fill="black"/>
<path d="M155.939 159.719V152.887H178.958C179.183 154.077 179.299 155.485 179.299 157.01C179.299 162.135 177.899 168.473 173.383 172.987C168.991 177.56 163.381 180 155.947 180C142.168 180 130.583 168.777 130.583 155C130.583 141.223 142.168 130 155.947 130C163.57 130 168.999 132.992 173.079 136.89L168.258 141.708C165.333 138.965 161.368 136.831 155.939 136.831C145.879 136.831 138.01 144.94 138.01 155C138.01 165.06 145.879 173.169 155.939 173.169C162.464 173.169 166.181 170.548 168.562 168.167C170.493 166.235 171.764 163.477 172.264 159.71L155.939 159.719Z" fill="black"/>
<path d="M114.822 144.8C114.852 145.24 114.852 145.682 114.852 146.125C114.852 159.682 104.531 175.313 85.6641 175.313V175.305C80.0912 175.313 74.6328 173.717 69.9412 170.707C70.7516 170.805 71.5662 170.853 72.3828 170.855C77.0037 170.859 81.4912 169.309 85.1224 166.455C80.7328 166.371 76.8828 163.509 75.5391 159.33C77.0766 159.625 78.6599 159.565 80.1703 159.155C75.3828 158.188 71.9412 153.982 71.9412 149.098C71.9412 149.055 71.9412 149.011 71.9412 148.969C73.3682 149.765 74.9641 150.205 76.5974 150.253C72.0891 147.242 70.6974 141.246 73.4203 136.559C78.6287 142.967 86.3141 146.863 94.562 147.278C93.7349 143.715 94.8662 139.982 97.5287 137.475C101.66 133.59 108.158 133.79 112.043 137.921C114.341 137.469 116.543 136.625 118.558 135.432C117.791 137.807 116.189 139.823 114.047 141.107C116.083 140.863 118.068 140.319 119.941 139.49C118.564 141.55 116.831 143.348 114.822 144.8Z" fill="black"/>
<g clip-path="url(#clip4_33_993)">
<path fill-rule="evenodd" clip-rule="evenodd" d="M172.632 17.2667C167.953 12.5833 161.732 10.0021 155.105 10C141.449 10 130.334 21.1125 130.328 34.775C130.326 39.1417 131.468 43.4042 133.637 47.1625L130.12 60L143.253 56.5542C146.872 58.5292 150.947 59.5687 155.093 59.5708H155.103C168.757 59.5708 179.874 48.4562 179.88 34.7937C179.884 28.175 177.309 21.9479 172.632 17.2667ZM155.105 55.3854H155.097C151.401 55.3854 147.778 54.3917 144.616 52.5146L143.864 52.0688L136.07 54.1125L138.151 46.5125L137.662 45.7333C135.599 42.4542 134.512 38.6646 134.514 34.775C134.518 23.4208 143.757 14.1833 155.116 14.1833C160.616 14.1833 165.787 16.3292 169.674 20.2208C173.562 24.1146 175.701 29.2875 175.699 34.7896C175.693 46.1479 166.455 55.3854 155.105 55.3854ZM166.401 39.9625C165.782 39.6521 162.739 38.1542 162.17 37.9479C161.603 37.7417 161.191 37.6375 160.776 38.2562C160.362 38.875 159.178 40.2708 158.816 40.6854C158.455 41.0979 158.093 41.15 157.474 40.8396C156.855 40.5292 154.859 39.8771 152.495 37.7667C150.655 36.125 149.412 34.0979 149.051 33.4771C148.691 32.8562 149.014 32.5229 149.322 32.2146C149.601 31.9375 149.941 31.4917 150.251 31.1292C150.564 30.7708 150.666 30.5125 150.874 30.0979C151.08 29.6854 150.978 29.3229 150.822 29.0125C150.666 28.7042 149.428 25.6562 148.914 24.4167C148.412 23.2083 147.901 23.3729 147.52 23.3542C147.159 23.3354 146.747 23.3333 146.332 23.3333C145.92 23.3333 145.249 23.4875 144.682 24.1083C144.116 24.7292 142.516 26.2271 142.516 29.2729C142.516 32.3208 144.734 35.2646 145.043 35.6771C145.351 36.0896 149.407 42.3437 155.618 45.025C157.095 45.6625 158.249 46.0437 159.147 46.3292C160.63 46.8 161.98 46.7333 163.047 46.575C164.237 46.3979 166.709 45.0771 167.226 43.6312C167.743 42.1854 167.743 40.9437 167.587 40.6875C167.432 40.4271 167.02 40.2729 166.401 39.9625Z" fill="black"/>
</g>
<path d="M178.954 82.8875C178.379 80.7229 176.685 79.0166 174.533 78.4375C170.635 77.3875 155 77.3875 155 77.3875C155 77.3875 139.365 77.3875 135.465 78.4375C133.315 79.0166 131.621 80.7208 131.046 82.8875C130 86.8125 130 95 130 95C130 95 130 103.187 131.046 107.112C131.621 109.277 133.315 110.983 135.467 111.562C139.365 112.612 155 112.612 155 112.612C155 112.612 170.635 112.612 174.535 111.562C176.685 110.983 178.379 109.279 178.956 107.112C180 103.187 180 95 180 95C180 95 180 86.8125 178.954 82.8875ZM149.887 102.435V87.5645L162.954 95L149.887 102.435Z" fill="black"/>
<defs>
<clipPath id="clip0_33_993">
<rect width="50" height="49.6979" fill="white" transform="translate(10 10)"/>
</clipPath>
<clipPath id="clip1_33_993">
<rect width="50" height="50" fill="white" transform="translate(70 10)"/>
</clipPath>
<clipPath id="clip2_33_993">
<rect width="50" height="50" fill="white" transform="translate(10 70)"/>
</clipPath>
<clipPath id="clip3_33_993">
<rect width="50" height="50" fill="white" transform="translate(70 70)"/>
</clipPath>
<clipPath id="clip4_33_993">
<rect width="50" height="50" fill="white" transform="translate(130 10)"/>
</clipPath>
</defs>
</svg>
